<mxfile host="app.diagrams.net" agent="Mozilla/5.0 (X11; Linux x86_64) AppleWebKit/537.36 (KHTML, like Gecko) Chrome/124.0.0.0 Safari/537.36" version="28.2.7">
  <diagram name="Page-1" id="jqt291FBonvwIVDB0eto">
    <mxGraphModel dx="2370" dy="2191" grid="1" gridSize="10" guides="1" tooltips="1" connect="1" arrows="1" fold="1" page="1" pageScale="1" pageWidth="850" pageHeight="1100" math="0" shadow="0">
      <root>
        <mxCell id="0" />
        <mxCell id="1" parent="0" />
        <mxCell id="i80k8GMT19eZxzc2PxOy-1" value="Flask App&amp;nbsp;" style="rounded=0;whiteSpace=wrap;html=1;" vertex="1" parent="1">
          <mxGeometry x="180" y="200" width="220" height="120" as="geometry" />
        </mxCell>
        <mxCell id="i80k8GMT19eZxzc2PxOy-2" value="Agent routes" style="rounded=0;whiteSpace=wrap;html=1;" vertex="1" parent="1">
          <mxGeometry x="-10" y="410" width="120" height="60" as="geometry" />
        </mxCell>
        <mxCell id="i80k8GMT19eZxzc2PxOy-3" value="Table routes" style="rounded=0;whiteSpace=wrap;html=1;" vertex="1" parent="1">
          <mxGeometry x="240" y="410" width="120" height="60" as="geometry" />
        </mxCell>
        <mxCell id="i80k8GMT19eZxzc2PxOy-4" value="SSE routes (real time)" style="rounded=0;whiteSpace=wrap;html=1;" vertex="1" parent="1">
          <mxGeometry x="480" y="400" width="120" height="60" as="geometry" />
        </mxCell>
        <mxCell id="i80k8GMT19eZxzc2PxOy-5" value="&lt;div style=&quot;color: rgb(201, 209, 217); background-color: rgb(13, 17, 23); font-family: &amp;quot;Droid Sans Mono&amp;quot;, &amp;quot;monospace&amp;quot;, monospace; font-size: 14px; line-height: 19px; white-space: pre;&quot;&gt;&lt;span style=&quot;color: rgb(165, 214, 255);&quot;&gt;/api/get-session-id&#39;&lt;/span&gt;, &lt;span style=&quot;color: rgb(253, 172, 84);&quot;&gt;methods&lt;/span&gt;&lt;span style=&quot;color: rgb(236, 142, 44);&quot;&gt;=&lt;/span&gt;[&lt;span style=&quot;color: rgb(165, 214, 255);&quot;&gt;&#39;GET&#39;&lt;/span&gt;, &lt;span style=&quot;color: rgb(165, 214, 255);&quot;&gt;&#39;POST&#39;&lt;/span&gt;]&lt;br&gt;&lt;div style=&quot;line-height: 19px;&quot;&gt;&lt;span style=&quot;color: rgb(139, 148, 158);&quot;&gt; POST request, we expect a session_id in the body&lt;br&gt;&lt;div style=&quot;color: rgb(201, 209, 217); line-height: 19px;&quot;&gt;&lt;span style=&quot;color: rgb(139, 148, 158);&quot;&gt;GET request, we do not expect a session_id in the query params&lt;/span&gt;&lt;/div&gt;&lt;/span&gt;&lt;/div&gt;&lt;br&gt;&lt;/div&gt;" style="text;html=1;whiteSpace=wrap;strokeColor=none;fillColor=none;align=left;verticalAlign=middle;rounded=0;" vertex="1" parent="1">
          <mxGeometry x="460" y="140" width="540" height="110" as="geometry" />
        </mxCell>
        <mxCell id="i80k8GMT19eZxzc2PxOy-7" value="&lt;div style=&quot;color: rgb(201, 209, 217); background-color: rgb(13, 17, 23); font-family: &amp;quot;Droid Sans Mono&amp;quot;, &amp;quot;monospace&amp;quot;, monospace; font-size: 14px; line-height: 19px; white-space: pre;&quot;&gt;&lt;span style=&quot;color: #a5d6ff;&quot;&gt;/api/tables&lt;/span&gt;&lt;/div&gt;" style="text;html=1;whiteSpace=wrap;strokeColor=none;fillColor=none;align=center;verticalAlign=middle;rounded=0;" vertex="1" parent="1">
          <mxGeometry x="290" y="380" width="60" height="30" as="geometry" />
        </mxCell>
        <mxCell id="i80k8GMT19eZxzc2PxOy-8" value="&lt;div style=&quot;color: rgb(201, 209, 217); background-color: rgb(13, 17, 23); font-family: &amp;quot;Droid Sans Mono&amp;quot;, &amp;quot;monospace&amp;quot;, monospace; font-size: 14px; line-height: 19px; white-space: pre;&quot;&gt;&lt;div style=&quot;line-height: 19px;&quot;&gt;&lt;span style=&quot;color: rgb(165, 214, 255);&quot;&gt;/data-loader/list-tables &lt;/span&gt;&lt;span style=&quot;background-color: light-dark(rgb(13, 17, 23), rgb(220, 223, 229)); color: rgb(253, 172, 84);&quot;&gt;methods&lt;/span&gt;&lt;span style=&quot;background-color: light-dark(rgb(13, 17, 23), rgb(220, 223, 229)); color: rgb(236, 142, 44);&quot;&gt;=&lt;/span&gt;&lt;span style=&quot;background-color: light-dark(rgb(13, 17, 23), rgb(220, 223, 229)); color: light-dark(rgb(201, 209, 217), rgb(52, 59, 65));&quot;&gt;[&lt;/span&gt;&lt;span style=&quot;background-color: light-dark(rgb(13, 17, 23), rgb(220, 223, 229)); color: rgb(165, 214, 255);&quot;&gt;&#39;GET&#39;&lt;/span&gt;&lt;span style=&quot;background-color: light-dark(rgb(13, 17, 23), rgb(220, 223, 229)); color: light-dark(rgb(201, 209, 217), rgb(52, 59, 65));&quot;&gt;]&lt;/span&gt;&lt;/div&gt;&lt;/div&gt;" style="text;html=1;whiteSpace=wrap;strokeColor=none;fillColor=none;align=center;verticalAlign=middle;rounded=0;" vertex="1" parent="1">
          <mxGeometry x="140" y="500" width="400" height="30" as="geometry" />
        </mxCell>
        <mxCell id="i80k8GMT19eZxzc2PxOy-9" value="&lt;div&gt;Payload&lt;/div&gt;&lt;div&gt;{&lt;/div&gt;&lt;div&gt;&amp;nbsp; &quot;data_loader_type&quot;: &quot;postgresql&quot;,&lt;/div&gt;&lt;div&gt;&amp;nbsp; &quot;data_loader_params&quot;: {&lt;/div&gt;&lt;div&gt;&amp;nbsp; &amp;nbsp; &quot;user&quot;: &quot;postgres&quot;,&lt;/div&gt;&lt;div&gt;&amp;nbsp; &amp;nbsp; &quot;password&quot;: &quot;postgres&quot;,&lt;/div&gt;&lt;div&gt;&amp;nbsp; &amp;nbsp; &quot;host&quot;: &quot;localhost&quot;,&lt;/div&gt;&lt;div&gt;&amp;nbsp; &amp;nbsp; &quot;port&quot;: &quot;5432&quot;,&lt;/div&gt;&lt;div&gt;&amp;nbsp; &amp;nbsp; &quot;database&quot;: &quot;postgres&quot;&lt;/div&gt;&lt;div&gt;&amp;nbsp; },&lt;/div&gt;&lt;div&gt;&amp;nbsp; &quot;table_filter&quot;: null&lt;/div&gt;&lt;div&gt;}&lt;/div&gt;" style="text;whiteSpace=wrap;html=1;align=left;" vertex="1" parent="1">
          <mxGeometry x="170" y="530" width="220" height="190" as="geometry" />
        </mxCell>
        <mxCell id="i80k8GMT19eZxzc2PxOy-12" value="&lt;div style=&quot;color: rgb(201, 209, 217); background-color: rgb(13, 17, 23); font-family: &amp;quot;Droid Sans Mono&amp;quot;, &amp;quot;monospace&amp;quot;, monospace; font-size: 14px; line-height: 19px; white-space: pre;&quot;&gt;&lt;div&gt;&lt;span style=&quot;color: rgb(121, 192, 255);&quot;&gt;DATA_LOADERS&lt;/span&gt; &lt;span style=&quot;color: rgb(236, 142, 44);&quot;&gt;=&lt;/span&gt; {&lt;/div&gt;&lt;div&gt;    &lt;span style=&quot;color: rgb(165, 214, 255);&quot;&gt;&quot;mysql&quot;&lt;/span&gt;: MySQLDataLoader,&lt;/div&gt;&lt;div&gt;    &lt;span style=&quot;color: rgb(165, 214, 255);&quot;&gt;&quot;mssql&quot;&lt;/span&gt;: MSSQLDataLoader,&lt;/div&gt;&lt;div&gt;    &lt;span style=&quot;color: rgb(165, 214, 255);&quot;&gt;&quot;kusto&quot;&lt;/span&gt;: KustoDataLoader,&lt;/div&gt;&lt;div&gt;    &lt;span style=&quot;color: rgb(165, 214, 255);&quot;&gt;&quot;s3&quot;&lt;/span&gt;: S3DataLoader,&lt;/div&gt;&lt;div&gt;    &lt;span style=&quot;color: rgb(165, 214, 255);&quot;&gt;&quot;azure_blob&quot;&lt;/span&gt;: AzureBlobDataLoader,&lt;/div&gt;&lt;div&gt;    &lt;span style=&quot;color: rgb(165, 214, 255);&quot;&gt;&quot;postgresql&quot;&lt;/span&gt;: PostgreSQLDataLoader&lt;/div&gt;&lt;div&gt;}&lt;/div&gt;&lt;/div&gt;" style="text;html=1;whiteSpace=wrap;strokeColor=none;fillColor=none;align=left;verticalAlign=middle;rounded=0;" vertex="1" parent="1">
          <mxGeometry x="700" y="-160" width="340" height="170" as="geometry" />
        </mxCell>
        <mxCell id="i80k8GMT19eZxzc2PxOy-13" value="&lt;div style=&quot;color: rgb(201, 209, 217); background-color: rgb(13, 17, 23); font-family: &amp;quot;Droid Sans Mono&amp;quot;, &amp;quot;monospace&amp;quot;, monospace; font-weight: normal; font-size: 14px; line-height: 19px; white-space: pre;&quot;&gt;&lt;div&gt;&lt;span style=&quot;color: rgb(253, 172, 84);&quot;&gt;PostgreSQLDataLoader Implement &lt;/span&gt;&lt;span style=&quot;color: rgb(121, 192, 255); background-color: light-dark(rgb(13, 17, 23), rgb(220, 223, 229));&quot;&gt;ExternalDataLoader&lt;/span&gt;&lt;/div&gt;&lt;/div&gt;" style="swimlane;fontStyle=0;childLayout=stackLayout;horizontal=1;startSize=26;fillColor=none;horizontalStack=0;resizeParent=1;resizeParentMax=0;resizeLast=0;collapsible=1;marginBottom=0;whiteSpace=wrap;html=1;" vertex="1" parent="1">
          <mxGeometry x="710" y="573" width="840" height="208" as="geometry" />
        </mxCell>
        <mxCell id="i80k8GMT19eZxzc2PxOy-14" value="&lt;div style=&quot;color: rgb(201, 209, 217); background-color: rgb(13, 17, 23); font-family: &amp;quot;Droid Sans Mono&amp;quot;, &amp;quot;monospace&amp;quot;, monospace; font-size: 14px; line-height: 19px; white-space: pre;&quot;&gt;&lt;span style=&quot;color: #ec8e2c;&quot;&gt;def&lt;/span&gt; &lt;span style=&quot;color: #d2a8ff;&quot;&gt;list_params&lt;/span&gt;()  -&amp;gt; List[Dict[&lt;span style=&quot;color: #79c0ff;&quot;&gt;str&lt;/span&gt;, Any]]&lt;/div&gt;" style="text;strokeColor=none;fillColor=none;align=left;verticalAlign=top;spacingLeft=4;spacingRight=4;overflow=hidden;rotatable=0;points=[[0,0.5],[1,0.5]];portConstraint=eastwest;whiteSpace=wrap;html=1;" vertex="1" parent="i80k8GMT19eZxzc2PxOy-13">
          <mxGeometry y="26" width="840" height="26" as="geometry" />
        </mxCell>
        <mxCell id="i80k8GMT19eZxzc2PxOy-15" value="&lt;div style=&quot;color: rgb(201, 209, 217); background-color: rgb(13, 17, 23); font-family: &amp;quot;Droid Sans Mono&amp;quot;, &amp;quot;monospace&amp;quot;, monospace; font-size: 14px; line-height: 19px; white-space: pre;&quot;&gt;&lt;span style=&quot;color: #ec8e2c;&quot;&gt;def&lt;/span&gt; &lt;span style=&quot;color: #d2a8ff;&quot;&gt;auth_instructions&lt;/span&gt;() -&amp;gt; &lt;span style=&quot;color: #79c0ff;&quot;&gt;str&lt;/span&gt;&lt;/div&gt;" style="text;strokeColor=none;fillColor=none;align=left;verticalAlign=top;spacingLeft=4;spacingRight=4;overflow=hidden;rotatable=0;points=[[0,0.5],[1,0.5]];portConstraint=eastwest;whiteSpace=wrap;html=1;" vertex="1" parent="i80k8GMT19eZxzc2PxOy-13">
          <mxGeometry y="52" width="840" height="26" as="geometry" />
        </mxCell>
        <mxCell id="i80k8GMT19eZxzc2PxOy-16" value="&lt;div style=&quot;color: rgb(201, 209, 217); background-color: rgb(13, 17, 23); font-family: &amp;quot;Droid Sans Mono&amp;quot;, &amp;quot;monospace&amp;quot;, monospace; font-size: 14px; line-height: 19px; white-space: pre;&quot;&gt;&lt;span style=&quot;color: #ec8e2c;&quot;&gt;def&lt;/span&gt; &lt;span style=&quot;color: #d2a8ff;&quot;&gt;_clean_value&lt;/span&gt;(self, value)&lt;/div&gt;" style="text;strokeColor=none;fillColor=none;align=left;verticalAlign=top;spacingLeft=4;spacingRight=4;overflow=hidden;rotatable=0;points=[[0,0.5],[1,0.5]];portConstraint=eastwest;whiteSpace=wrap;html=1;" vertex="1" parent="i80k8GMT19eZxzc2PxOy-13">
          <mxGeometry y="78" width="840" height="26" as="geometry" />
        </mxCell>
        <mxCell id="i80k8GMT19eZxzc2PxOy-18" value="&lt;div style=&quot;color: rgb(201, 209, 217); background-color: rgb(13, 17, 23); font-family: &amp;quot;Droid Sans Mono&amp;quot;, &amp;quot;monospace&amp;quot;, monospace; font-size: 14px; line-height: 19px; white-space: pre;&quot;&gt;&lt;div style=&quot;line-height: 19px;&quot;&gt;&lt;span style=&quot;color: #ec8e2c;&quot;&gt;def&lt;/span&gt; &lt;span style=&quot;color: #d2a8ff;&quot;&gt;list_tables&lt;/span&gt;(self)&lt;/div&gt;&lt;/div&gt;" style="text;strokeColor=none;fillColor=none;align=left;verticalAlign=top;spacingLeft=4;spacingRight=4;overflow=hidden;rotatable=0;points=[[0,0.5],[1,0.5]];portConstraint=eastwest;whiteSpace=wrap;html=1;" vertex="1" parent="i80k8GMT19eZxzc2PxOy-13">
          <mxGeometry y="104" width="840" height="26" as="geometry" />
        </mxCell>
        <mxCell id="i80k8GMT19eZxzc2PxOy-19" value="&lt;div style=&quot;color: rgb(201, 209, 217); background-color: rgb(13, 17, 23); font-family: &amp;quot;Droid Sans Mono&amp;quot;, &amp;quot;monospace&amp;quot;, monospace; font-size: 14px; line-height: 19px; white-space: pre;&quot;&gt;&lt;div style=&quot;line-height: 19px;&quot;&gt;&lt;div style=&quot;line-height: 19px;&quot;&gt;&lt;span style=&quot;color: #ec8e2c;&quot;&gt;def&lt;/span&gt; &lt;span style=&quot;color: #d2a8ff;&quot;&gt;ingest_data&lt;/span&gt;(self, table_name: &lt;span style=&quot;color: #79c0ff;&quot;&gt;str&lt;/span&gt;, name_as: &lt;span style=&quot;color: #79c0ff;&quot;&gt;str&lt;/span&gt; &lt;span style=&quot;color: #ec8e2c;&quot;&gt;|&lt;/span&gt; &lt;span style=&quot;color: #79c0ff;&quot;&gt;None&lt;/span&gt; &lt;span style=&quot;color: #ec8e2c;&quot;&gt;=&lt;/span&gt; &lt;span style=&quot;color: #79c0ff;&quot;&gt;None&lt;/span&gt;, size: &lt;span style=&quot;color: #79c0ff;&quot;&gt;int&lt;/span&gt; &lt;span style=&quot;color: #ec8e2c;&quot;&gt;=&lt;/span&gt; &lt;span style=&quot;color: #79c0ff;&quot;&gt;1000000&lt;/span&gt;)&lt;/div&gt;&lt;/div&gt;&lt;/div&gt;" style="text;strokeColor=none;fillColor=none;align=left;verticalAlign=top;spacingLeft=4;spacingRight=4;overflow=hidden;rotatable=0;points=[[0,0.5],[1,0.5]];portConstraint=eastwest;whiteSpace=wrap;html=1;" vertex="1" parent="i80k8GMT19eZxzc2PxOy-13">
          <mxGeometry y="130" width="840" height="26" as="geometry" />
        </mxCell>
        <mxCell id="i80k8GMT19eZxzc2PxOy-20" value="&lt;div style=&quot;color: rgb(201, 209, 217); background-color: rgb(13, 17, 23); font-family: &amp;quot;Droid Sans Mono&amp;quot;, &amp;quot;monospace&amp;quot;, monospace; font-size: 14px; line-height: 19px; white-space: pre;&quot;&gt;&lt;div style=&quot;line-height: 19px;&quot;&gt;&lt;div style=&quot;line-height: 19px;&quot;&gt;&lt;div style=&quot;line-height: 19px;&quot;&gt;&lt;span style=&quot;color: #ec8e2c;&quot;&gt;def&lt;/span&gt; &lt;span style=&quot;color: #d2a8ff;&quot;&gt;view_query_sample&lt;/span&gt;(self, query: &lt;span style=&quot;color: #79c0ff;&quot;&gt;str&lt;/span&gt;) -&amp;gt; &lt;span style=&quot;color: #79c0ff;&quot;&gt;str&lt;/span&gt;&lt;/div&gt;&lt;/div&gt;&lt;/div&gt;&lt;/div&gt;" style="text;strokeColor=none;fillColor=none;align=left;verticalAlign=top;spacingLeft=4;spacingRight=4;overflow=hidden;rotatable=0;points=[[0,0.5],[1,0.5]];portConstraint=eastwest;whiteSpace=wrap;html=1;" vertex="1" parent="i80k8GMT19eZxzc2PxOy-13">
          <mxGeometry y="156" width="840" height="26" as="geometry" />
        </mxCell>
        <mxCell id="i80k8GMT19eZxzc2PxOy-21" value="&lt;div style=&quot;color: rgb(201, 209, 217); background-color: rgb(13, 17, 23); font-family: &amp;quot;Droid Sans Mono&amp;quot;, &amp;quot;monospace&amp;quot;, monospace; font-size: 14px; line-height: 19px; white-space: pre;&quot;&gt;&lt;div style=&quot;line-height: 19px;&quot;&gt;&lt;div style=&quot;line-height: 19px;&quot;&gt;&lt;div style=&quot;line-height: 19px;&quot;&gt;&lt;div style=&quot;line-height: 19px;&quot;&gt;&lt;span style=&quot;color: #ec8e2c;&quot;&gt;def&lt;/span&gt; &lt;span style=&quot;color: #d2a8ff;&quot;&gt;ingest_data_from_query&lt;/span&gt;(self, query: &lt;span style=&quot;color: #79c0ff;&quot;&gt;str&lt;/span&gt;, name_as: &lt;span style=&quot;color: #79c0ff;&quot;&gt;str&lt;/span&gt;) -&amp;gt; pd.DataFrame&lt;/div&gt;&lt;/div&gt;&lt;/div&gt;&lt;/div&gt;&lt;/div&gt;" style="text;strokeColor=none;fillColor=none;align=left;verticalAlign=top;spacingLeft=4;spacingRight=4;overflow=hidden;rotatable=0;points=[[0,0.5],[1,0.5]];portConstraint=eastwest;whiteSpace=wrap;html=1;" vertex="1" parent="i80k8GMT19eZxzc2PxOy-13">
          <mxGeometry y="182" width="840" height="26" as="geometry" />
        </mxCell>
        <mxCell id="i80k8GMT19eZxzc2PxOy-26" style="edgeStyle=orthogonalEdgeStyle;rounded=0;orthogonalLoop=1;jettySize=auto;html=1;entryX=0.5;entryY=0;entryDx=0;entryDy=0;" edge="1" parent="1" source="i80k8GMT19eZxzc2PxOy-22" target="i80k8GMT19eZxzc2PxOy-13">
          <mxGeometry relative="1" as="geometry" />
        </mxCell>
        <mxCell id="i80k8GMT19eZxzc2PxOy-22" value="&lt;div style=&quot;color: rgb(201, 209, 217); background-color: rgb(13, 17, 23); font-family: &amp;quot;Droid Sans Mono&amp;quot;, &amp;quot;monospace&amp;quot;, monospace; font-size: 14px; line-height: 19px; white-space: pre;&quot;&gt;&lt;span style=&quot;color: #fdac54;&quot;&gt;ExternalDataLoader&lt;/span&gt;(&lt;span style=&quot;color: #79c0ff;&quot;&gt;ABC&lt;/span&gt;)&lt;/div&gt;" style="swimlane;fontStyle=0;childLayout=stackLayout;horizontal=1;startSize=26;fillColor=none;horizontalStack=0;resizeParent=1;resizeParentMax=0;resizeLast=0;collapsible=1;marginBottom=0;whiteSpace=wrap;html=1;" vertex="1" parent="1">
          <mxGeometry x="1190" y="-340" width="750" height="690" as="geometry" />
        </mxCell>
        <mxCell id="i80k8GMT19eZxzc2PxOy-23" value="&lt;div style=&quot;color: rgb(201, 209, 217); background-color: rgb(13, 17, 23); font-family: &amp;quot;Droid Sans Mono&amp;quot;, &amp;quot;monospace&amp;quot;, monospace; font-size: 14px; line-height: 19px; white-space: pre;&quot;&gt; &lt;span style=&quot;color: #ec8e2c;&quot;&gt;def&lt;/span&gt; &lt;span style=&quot;color: #d2a8ff;&quot;&gt;ingest_df_to_duckdb&lt;/span&gt;(self, df: pd.DataFrame, table_name: &lt;span style=&quot;color: #79c0ff;&quot;&gt;str&lt;/span&gt;)&lt;/div&gt;" style="text;strokeColor=none;fillColor=none;align=left;verticalAlign=top;spacingLeft=4;spacingRight=4;overflow=hidden;rotatable=0;points=[[0,0.5],[1,0.5]];portConstraint=eastwest;whiteSpace=wrap;html=1;" vertex="1" parent="i80k8GMT19eZxzc2PxOy-22">
          <mxGeometry y="26" width="750" height="26" as="geometry" />
        </mxCell>
        <mxCell id="i80k8GMT19eZxzc2PxOy-24" value="&lt;div style=&quot;color: rgb(201, 209, 217); background-color: rgb(13, 17, 23); font-family: &amp;quot;Droid Sans Mono&amp;quot;, &amp;quot;monospace&amp;quot;, monospace; font-size: 14px; line-height: 19px; white-space: pre;&quot;&gt;&lt;div&gt;&lt;span style=&quot;color: #d2a8ff;&quot;&gt;@&lt;/span&gt;&lt;span style=&quot;color: #79c0ff;&quot;&gt;staticmethod&lt;/span&gt;&lt;/div&gt;&lt;div&gt;    &lt;span style=&quot;color: #d2a8ff;&quot;&gt;@abstractmethod&lt;/span&gt;&lt;/div&gt;&lt;div&gt;    &lt;span style=&quot;color: #ec8e2c;&quot;&gt;def&lt;/span&gt; &lt;span style=&quot;color: #d2a8ff;&quot;&gt;list_params&lt;/span&gt;() -&amp;gt; List[Dict[&lt;span style=&quot;color: #79c0ff;&quot;&gt;str&lt;/span&gt;, Any]]&lt;/div&gt;&lt;/div&gt;" style="text;strokeColor=none;fillColor=none;align=left;verticalAlign=top;spacingLeft=4;spacingRight=4;overflow=hidden;rotatable=0;points=[[0,0.5],[1,0.5]];portConstraint=eastwest;whiteSpace=wrap;html=1;" vertex="1" parent="i80k8GMT19eZxzc2PxOy-22">
          <mxGeometry y="52" width="750" height="78" as="geometry" />
        </mxCell>
        <mxCell id="i80k8GMT19eZxzc2PxOy-25" value="&lt;div style=&quot;color: rgb(201, 209, 217); background-color: rgb(13, 17, 23); font-family: &amp;quot;Droid Sans Mono&amp;quot;, &amp;quot;monospace&amp;quot;, monospace; font-size: 14px; line-height: 19px; white-space: pre;&quot;&gt;&lt;div&gt; &lt;span style=&quot;color: #d2a8ff;&quot;&gt;@&lt;/span&gt;&lt;span style=&quot;color: #79c0ff;&quot;&gt;staticmethod&lt;/span&gt;&lt;/div&gt;&lt;div&gt;    &lt;span style=&quot;color: #d2a8ff;&quot;&gt;@abstractmethod&lt;/span&gt;&lt;/div&gt;&lt;div&gt;    &lt;span style=&quot;color: #ec8e2c;&quot;&gt;def&lt;/span&gt; &lt;span style=&quot;color: #d2a8ff;&quot;&gt;auth_instructions&lt;/span&gt;() -&amp;gt; &lt;span style=&quot;color: #79c0ff;&quot;&gt;str&lt;/span&gt;&lt;/div&gt;&lt;/div&gt;" style="text;strokeColor=none;fillColor=none;align=left;verticalAlign=top;spacingLeft=4;spacingRight=4;overflow=hidden;rotatable=0;points=[[0,0.5],[1,0.5]];portConstraint=eastwest;whiteSpace=wrap;html=1;" vertex="1" parent="i80k8GMT19eZxzc2PxOy-22">
          <mxGeometry y="130" width="750" height="80" as="geometry" />
        </mxCell>
        <mxCell id="i80k8GMT19eZxzc2PxOy-27" value="&lt;div style=&quot;color: rgb(201, 209, 217); background-color: rgb(13, 17, 23); font-family: &amp;quot;Droid Sans Mono&amp;quot;, &amp;quot;monospace&amp;quot;, monospace; font-size: 14px; line-height: 19px; white-space: pre;&quot;&gt;&lt;div style=&quot;line-height: 19px;&quot;&gt;&lt;div&gt;&lt;span style=&quot;color: #d2a8ff;&quot;&gt;@abstractmethod&lt;/span&gt;&lt;/div&gt;&lt;div&gt;    &lt;span style=&quot;color: #ec8e2c;&quot;&gt;def&lt;/span&gt; &lt;span style=&quot;color: #79c0ff;&quot;&gt;__init__&lt;/span&gt;(self, params: Dict[&lt;span style=&quot;color: #79c0ff;&quot;&gt;str&lt;/span&gt;, Any], duck_db_conn: duckdb.DuckDBPyConnection)&lt;/div&gt;&lt;/div&gt;&lt;/div&gt;" style="text;strokeColor=none;fillColor=none;align=left;verticalAlign=top;spacingLeft=4;spacingRight=4;overflow=hidden;rotatable=0;points=[[0,0.5],[1,0.5]];portConstraint=eastwest;whiteSpace=wrap;html=1;" vertex="1" parent="i80k8GMT19eZxzc2PxOy-22">
          <mxGeometry y="210" width="750" height="60" as="geometry" />
        </mxCell>
        <mxCell id="i80k8GMT19eZxzc2PxOy-28" value="&lt;div style=&quot;color: rgb(201, 209, 217); background-color: rgb(13, 17, 23); font-family: &amp;quot;Droid Sans Mono&amp;quot;, &amp;quot;monospace&amp;quot;, monospace; font-size: 14px; line-height: 19px; white-space: pre;&quot;&gt;&lt;div style=&quot;line-height: 19px;&quot;&gt;&lt;div&gt;&lt;span style=&quot;color: #d2a8ff;&quot;&gt;@abstractmethod&lt;/span&gt;&lt;/div&gt;&lt;div&gt;    &lt;span style=&quot;color: #ec8e2c;&quot;&gt;def&lt;/span&gt; &lt;span style=&quot;color: #79c0ff;&quot;&gt;__init__&lt;/span&gt;(self, params: Dict[&lt;span style=&quot;color: #79c0ff;&quot;&gt;str&lt;/span&gt;, Any], duck_db_conn: duckdb.DuckDBPyConnection)&lt;/div&gt;&lt;/div&gt;&lt;/div&gt;" style="text;strokeColor=none;fillColor=none;align=left;verticalAlign=top;spacingLeft=4;spacingRight=4;overflow=hidden;rotatable=0;points=[[0,0.5],[1,0.5]];portConstraint=eastwest;whiteSpace=wrap;html=1;" vertex="1" parent="i80k8GMT19eZxzc2PxOy-22">
          <mxGeometry y="270" width="750" height="70" as="geometry" />
        </mxCell>
        <mxCell id="i80k8GMT19eZxzc2PxOy-29" value="&lt;div style=&quot;color: rgb(201, 209, 217); background-color: rgb(13, 17, 23); font-family: &amp;quot;Droid Sans Mono&amp;quot;, &amp;quot;monospace&amp;quot;, monospace; font-size: 14px; line-height: 19px; white-space: pre;&quot;&gt;&lt;div style=&quot;line-height: 19px;&quot;&gt;&lt;div style=&quot;line-height: 19px;&quot;&gt;&lt;div&gt; &lt;span style=&quot;color: #d2a8ff;&quot;&gt;@abstractmethod&lt;/span&gt;&lt;/div&gt;&lt;div&gt;    &lt;span style=&quot;color: #ec8e2c;&quot;&gt;def&lt;/span&gt; &lt;span style=&quot;color: #d2a8ff;&quot;&gt;list_tables&lt;/span&gt;(self, table_filter: &lt;span style=&quot;color: #79c0ff;&quot;&gt;str&lt;/span&gt; &lt;span style=&quot;color: #ec8e2c;&quot;&gt;=&lt;/span&gt; &lt;span style=&quot;color: #79c0ff;&quot;&gt;None&lt;/span&gt;) -&amp;gt; List[Dict[&lt;span style=&quot;color: #79c0ff;&quot;&gt;str&lt;/span&gt;, Any]]&lt;/div&gt;&lt;/div&gt;&lt;/div&gt;&lt;/div&gt;" style="text;strokeColor=none;fillColor=none;align=left;verticalAlign=top;spacingLeft=4;spacingRight=4;overflow=hidden;rotatable=0;points=[[0,0.5],[1,0.5]];portConstraint=eastwest;whiteSpace=wrap;html=1;" vertex="1" parent="i80k8GMT19eZxzc2PxOy-22">
          <mxGeometry y="340" width="750" height="70" as="geometry" />
        </mxCell>
        <mxCell id="i80k8GMT19eZxzc2PxOy-30" value="&lt;div style=&quot;color: rgb(201, 209, 217); background-color: rgb(13, 17, 23); font-family: &amp;quot;Droid Sans Mono&amp;quot;, &amp;quot;monospace&amp;quot;, monospace; font-size: 14px; line-height: 19px; white-space: pre;&quot;&gt;&lt;div style=&quot;line-height: 19px;&quot;&gt;&lt;div style=&quot;line-height: 19px;&quot;&gt;&lt;div&gt; &lt;span style=&quot;color: #d2a8ff;&quot;&gt;@abstractmethod&lt;/span&gt;&lt;/div&gt;&lt;div&gt;    &lt;span style=&quot;color: #ec8e2c;&quot;&gt;def&lt;/span&gt; &lt;span style=&quot;color: #d2a8ff;&quot;&gt;list_tables&lt;/span&gt;(self, table_filter: &lt;span style=&quot;color: #79c0ff;&quot;&gt;str&lt;/span&gt; &lt;span style=&quot;color: #ec8e2c;&quot;&gt;=&lt;/span&gt; &lt;span style=&quot;color: #79c0ff;&quot;&gt;None&lt;/span&gt;) -&amp;gt; List[Dict[&lt;span style=&quot;color: #79c0ff;&quot;&gt;str&lt;/span&gt;, Any]]&lt;/div&gt;&lt;/div&gt;&lt;/div&gt;&lt;/div&gt;" style="text;strokeColor=none;fillColor=none;align=left;verticalAlign=top;spacingLeft=4;spacingRight=4;overflow=hidden;rotatable=0;points=[[0,0.5],[1,0.5]];portConstraint=eastwest;whiteSpace=wrap;html=1;" vertex="1" parent="i80k8GMT19eZxzc2PxOy-22">
          <mxGeometry y="410" width="750" height="70" as="geometry" />
        </mxCell>
        <mxCell id="i80k8GMT19eZxzc2PxOy-31" value="&lt;div style=&quot;color: rgb(201, 209, 217); background-color: rgb(13, 17, 23); font-family: &amp;quot;Droid Sans Mono&amp;quot;, &amp;quot;monospace&amp;quot;, monospace; font-size: 14px; line-height: 19px; white-space: pre;&quot;&gt;&lt;div style=&quot;line-height: 19px;&quot;&gt;&lt;div style=&quot;line-height: 19px;&quot;&gt;&lt;div style=&quot;line-height: 19px;&quot;&gt;&lt;div&gt;&lt;span style=&quot;color: #d2a8ff;&quot;&gt;@abstractmethod&lt;/span&gt;&lt;/div&gt;&lt;div&gt;    &lt;span style=&quot;color: #ec8e2c;&quot;&gt;def&lt;/span&gt; &lt;span style=&quot;color: #d2a8ff;&quot;&gt;ingest_data&lt;/span&gt;(self, table_name: &lt;span style=&quot;color: #79c0ff;&quot;&gt;str&lt;/span&gt;, name_as: &lt;span style=&quot;color: #79c0ff;&quot;&gt;str&lt;/span&gt; &lt;span style=&quot;color: #ec8e2c;&quot;&gt;=&lt;/span&gt; &lt;span style=&quot;color: #79c0ff;&quot;&gt;None&lt;/span&gt;, size: &lt;span style=&quot;color: #79c0ff;&quot;&gt;int&lt;/span&gt; &lt;span style=&quot;color: #ec8e2c;&quot;&gt;=&lt;/span&gt; &lt;span style=&quot;color: #79c0ff;&quot;&gt;1000000&lt;/span&gt;):&lt;/div&gt;&lt;div&gt;        &lt;span style=&quot;color: #ec8e2c;&quot;&gt;pass&lt;/span&gt;&lt;/div&gt;&lt;/div&gt;&lt;/div&gt;&lt;/div&gt;&lt;/div&gt;" style="text;strokeColor=none;fillColor=none;align=left;verticalAlign=top;spacingLeft=4;spacingRight=4;overflow=hidden;rotatable=0;points=[[0,0.5],[1,0.5]];portConstraint=eastwest;whiteSpace=wrap;html=1;" vertex="1" parent="i80k8GMT19eZxzc2PxOy-22">
          <mxGeometry y="480" width="750" height="70" as="geometry" />
        </mxCell>
        <mxCell id="i80k8GMT19eZxzc2PxOy-32" value="&lt;div style=&quot;color: rgb(201, 209, 217); background-color: rgb(13, 17, 23); font-family: &amp;quot;Droid Sans Mono&amp;quot;, &amp;quot;monospace&amp;quot;, monospace; font-size: 14px; line-height: 19px; white-space: pre;&quot;&gt;&lt;div style=&quot;line-height: 19px;&quot;&gt;&lt;div style=&quot;line-height: 19px;&quot;&gt;&lt;div style=&quot;line-height: 19px;&quot;&gt;&lt;div style=&quot;line-height: 19px;&quot;&gt;&lt;div&gt;&lt;span style=&quot;color: #d2a8ff;&quot;&gt;@abstractmethod&lt;/span&gt;&lt;/div&gt;&lt;div&gt;    &lt;span style=&quot;color: #ec8e2c;&quot;&gt;def&lt;/span&gt; &lt;span style=&quot;color: #d2a8ff;&quot;&gt;view_query_sample&lt;/span&gt;(self, query: &lt;span style=&quot;color: #79c0ff;&quot;&gt;str&lt;/span&gt;) -&amp;gt; &lt;span style=&quot;color: #79c0ff;&quot;&gt;str&lt;/span&gt;:&lt;/div&gt;&lt;div&gt;        &lt;span style=&quot;color: #ec8e2c;&quot;&gt;pass&lt;/span&gt;&lt;/div&gt;&lt;/div&gt;&lt;/div&gt;&lt;/div&gt;&lt;/div&gt;&lt;/div&gt;" style="text;strokeColor=none;fillColor=none;align=left;verticalAlign=top;spacingLeft=4;spacingRight=4;overflow=hidden;rotatable=0;points=[[0,0.5],[1,0.5]];portConstraint=eastwest;whiteSpace=wrap;html=1;" vertex="1" parent="i80k8GMT19eZxzc2PxOy-22">
          <mxGeometry y="550" width="750" height="70" as="geometry" />
        </mxCell>
        <mxCell id="i80k8GMT19eZxzc2PxOy-33" value="&lt;div style=&quot;color: rgb(201, 209, 217); background-color: rgb(13, 17, 23); font-family: &amp;quot;Droid Sans Mono&amp;quot;, &amp;quot;monospace&amp;quot;, monospace; font-size: 14px; line-height: 19px; white-space: pre;&quot;&gt;&lt;div style=&quot;line-height: 19px;&quot;&gt;&lt;div style=&quot;line-height: 19px;&quot;&gt;&lt;div style=&quot;line-height: 19px;&quot;&gt;&lt;div style=&quot;line-height: 19px;&quot;&gt;&lt;div style=&quot;line-height: 19px;&quot;&gt;&lt;div&gt;&lt;span style=&quot;color: #d2a8ff;&quot;&gt;@abstractmethod&lt;/span&gt;&lt;/div&gt;&lt;div&gt;    &lt;span style=&quot;color: #ec8e2c;&quot;&gt;def&lt;/span&gt; &lt;span style=&quot;color: #d2a8ff;&quot;&gt;ingest_data_from_query&lt;/span&gt;(self, query: &lt;span style=&quot;color: #79c0ff;&quot;&gt;str&lt;/span&gt;, name_as: &lt;span style=&quot;color: #79c0ff;&quot;&gt;str&lt;/span&gt;):&lt;/div&gt;&lt;div&gt;        &lt;span style=&quot;color: #ec8e2c;&quot;&gt;pass&lt;/span&gt;&lt;/div&gt;&lt;/div&gt;&lt;/div&gt;&lt;/div&gt;&lt;/div&gt;&lt;/div&gt;&lt;/div&gt;" style="text;strokeColor=none;fillColor=none;align=left;verticalAlign=top;spacingLeft=4;spacingRight=4;overflow=hidden;rotatable=0;points=[[0,0.5],[1,0.5]];portConstraint=eastwest;whiteSpace=wrap;html=1;" vertex="1" parent="i80k8GMT19eZxzc2PxOy-22">
          <mxGeometry y="620" width="750" height="70" as="geometry" />
        </mxCell>
      </root>
    </mxGraphModel>
  </diagram>
</mxfile>
